<svg xmlns="http://www.w3.org/2000/svg" xmlns:xlink="http://www.w3.org/1999/xlink" width="132" zoomAndPan="magnify" viewBox="0 0 98.88 30.000001" height="40" preserveAspectRatio="xMidYMid meet" version="1.0"><defs><g/><clipPath id="64388a2a9f"><path d="M 59.878906 6 L 62 6 L 62 8 L 59.878906 8 Z M 59.878906 6 " clip-rule="nonzero"/></clipPath><clipPath id="18d6968550"><path d="M 61 0.511719 L 71 0.511719 L 71 10 L 61 10 Z M 61 0.511719 " clip-rule="nonzero"/></clipPath><clipPath id="3322e3162a"><path d="M 70 5 L 77.296875 5 L 77.296875 28.816406 L 70 28.816406 Z M 70 5 " clip-rule="nonzero"/></clipPath></defs><g clip-path="url(#64388a2a9f)"><path fill="#ff3131" d="M 61.851562 6.953125 L 59.878906 7.132812 L 61.851562 7.121094 Z M 61.851562 6.953125 " fill-opacity="1" fill-rule="nonzero"/></g><path fill="#ff3131" d="M 62.859375 6.871094 L 62.859375 7.121094 L 69.28125 7.082031 L 69.277344 6.28125 Z M 62.859375 6.871094 " fill-opacity="1" fill-rule="nonzero"/><g clip-path="url(#18d6968550)"><path fill="#ff3131" d="M 70.023438 8.304688 C 70.023438 7.347656 70.011719 4.125 70.023438 3.769531 C 70.035156 3.539062 69.898438 2.496094 69.070312 1.636719 C 68.359375 0.898438 67.359375 0.523438 66.101562 0.523438 C 62.324219 0.523438 62.144531 3.980469 62.144531 4.023438 L 62.144531 8.304688 C 62.03125 8.378906 61.957031 8.507812 61.957031 8.652344 C 61.957031 8.886719 62.144531 9.074219 62.375 9.074219 C 62.605469 9.074219 62.792969 8.886719 62.792969 8.652344 C 62.792969 8.484375 62.695312 8.339844 62.546875 8.273438 L 62.546875 4.03125 C 62.550781 3.902344 62.710938 0.921875 66.101562 0.921875 C 67.246094 0.921875 68.148438 1.253906 68.785156 1.914062 C 69.453125 2.609375 69.632812 3.507812 69.625 3.753906 C 69.609375 4.117188 69.621094 7.273438 69.621094 8.273438 C 69.476562 8.339844 69.375 8.484375 69.375 8.652344 C 69.375 8.886719 69.5625 9.074219 69.796875 9.074219 C 70.027344 9.074219 70.214844 8.886719 70.214844 8.652344 C 70.214844 8.507812 70.136719 8.378906 70.023438 8.304688 Z M 70.023438 8.304688 " fill-opacity="1" fill-rule="nonzero"/></g><g clip-path="url(#3322e3162a)"><path fill="#ff3131" d="M 75.46875 6.289062 L 75.199219 5.75 L 75.085938 5.757812 L 72.804688 5.96875 L 70.355469 6.191406 L 70.363281 7.074219 L 73.515625 7.058594 C 78.980469 16.25 72.910156 28.242188 72.777344 28.5 C 79.179688 19.46875 77.355469 9.378906 75.46875 6.289062 Z M 75.46875 6.289062 " fill-opacity="1" fill-rule="nonzero"/></g><g fill="#000000" fill-opacity="1"><g transform="translate(16.705032, 18.843469)"><g><path d="M 2.484375 -3.359375 L 5.8125 -3.359375 L 4.15625 -7.578125 Z M 8.171875 0 L 7.140625 0 L 6.15625 -2.484375 L 2.140625 -2.484375 L 1.15625 0 L 0.140625 0 L 4.15625 -9.78125 Z M 8.171875 0 "/></g></g></g><g fill="#000000" fill-opacity="1"><g transform="translate(24.996731, 18.843469)"><g><path d="M 5.09375 0 L 5.09375 -3.703125 C 5.09375 -4.085938 5.007812 -4.414062 4.84375 -4.6875 C 4.664062 -4.957031 4.375 -5.09375 3.96875 -5.09375 C 3.5625 -5.09375 3.234375 -5.019531 2.984375 -4.875 C 2.734375 -4.71875 2.53125 -4.519531 2.375 -4.28125 C 2.09375 -3.832031 1.953125 -3.226562 1.953125 -2.46875 L 1.953125 0 L 1.015625 0 L 1.015625 -5.921875 L 1.953125 -5.921875 L 1.953125 -4.890625 C 2.148438 -5.222656 2.398438 -5.5 2.703125 -5.71875 C 3.023438 -5.9375 3.398438 -6.046875 3.828125 -6.046875 C 4.242188 -6.046875 4.582031 -5.984375 4.84375 -5.859375 C 5.101562 -5.734375 5.320312 -5.570312 5.5 -5.375 C 5.863281 -4.945312 6.046875 -4.390625 6.046875 -3.703125 L 6.046875 0 Z M 5.09375 0 "/></g></g></g><g fill="#000000" fill-opacity="1"><g transform="translate(31.837049, 18.843469)"><g><path d="M 1.953125 0 L 1.015625 0 L 1.015625 -10.09375 L 1.953125 -10.09375 L 1.953125 -3.265625 L 4.109375 -5.9375 L 5.375 -5.9375 L 2.9375 -3.046875 L 5.53125 0 L 4.28125 0 L 1.953125 -2.84375 Z M 1.953125 0 "/></g></g></g><g fill="#000000" fill-opacity="1"><g transform="translate(37.494753, 18.843469)"><g/></g></g><g fill="#000000" fill-opacity="1"><g transform="translate(41.123209, 18.843469)"><g><path d="M 3.546875 -4.3125 C 1.679688 -4.75 0.75 -5.550781 0.75 -6.71875 C 0.75 -7.570312 1.050781 -8.21875 1.65625 -8.65625 C 2.257812 -9.070312 2.960938 -9.28125 3.765625 -9.28125 C 5.546875 -9.28125 6.601562 -8.617188 6.9375 -7.296875 L 5.921875 -7.296875 C 5.742188 -8.078125 5.023438 -8.46875 3.765625 -8.46875 C 2.890625 -8.46875 2.273438 -8.207031 1.921875 -7.6875 C 1.785156 -7.5 1.71875 -7.253906 1.71875 -6.953125 C 1.71875 -6.390625 2.023438 -5.957031 2.640625 -5.65625 C 2.921875 -5.5 3.53125 -5.300781 4.46875 -5.0625 C 5.394531 -4.8125 6.070312 -4.539062 6.5 -4.25 C 7.082031 -3.832031 7.375 -3.253906 7.375 -2.515625 C 7.375 -1.585938 7.007812 -0.890625 6.28125 -0.421875 C 5.675781 -0.0234375 4.921875 0.171875 4.015625 0.171875 C 1.992188 0.171875 0.820312 -0.597656 0.5 -2.140625 L 1.609375 -2.140625 C 1.785156 -1.171875 2.585938 -0.6875 4.015625 -0.6875 C 5.046875 -0.6875 5.757812 -0.96875 6.15625 -1.53125 C 6.320312 -1.757812 6.40625 -2.066406 6.40625 -2.453125 C 6.40625 -2.828125 6.253906 -3.132812 5.953125 -3.375 C 5.535156 -3.71875 4.734375 -4.03125 3.546875 -4.3125 Z M 3.546875 -4.3125 "/></g></g></g><g fill="#000000" fill-opacity="1"><g transform="translate(48.83704, 18.843469)"><g><path d="M 1.953125 0 L 1.015625 0 L 1.015625 -10.09375 L 1.953125 -10.09375 L 1.953125 -4.890625 C 2.148438 -5.222656 2.398438 -5.5 2.703125 -5.71875 C 3.023438 -5.9375 3.398438 -6.046875 3.828125 -6.046875 C 4.242188 -6.046875 4.582031 -5.984375 4.84375 -5.859375 C 5.101562 -5.734375 5.320312 -5.570312 5.5 -5.375 C 5.863281 -4.945312 6.046875 -4.390625 6.046875 -3.703125 L 6.046875 0 L 5.09375 0 L 5.09375 -3.703125 C 5.09375 -4.085938 5.007812 -4.414062 4.84375 -4.6875 C 4.664062 -4.957031 4.375 -5.09375 3.96875 -5.09375 C 3.5625 -5.09375 3.234375 -5.03125 2.984375 -4.90625 C 2.734375 -4.769531 2.53125 -4.585938 2.375 -4.359375 C 2.09375 -3.929688 1.953125 -3.300781 1.953125 -2.46875 Z M 1.953125 0 "/></g></g></g><g fill="#000000" fill-opacity="1"><g transform="translate(55.677359, 18.843469)"><g><path d="M 5.859375 -2.984375 C 5.859375 -3.578125 5.644531 -4.082031 5.21875 -4.5 C 4.800781 -4.925781 4.296875 -5.140625 3.703125 -5.140625 C 3.109375 -5.140625 2.597656 -4.925781 2.171875 -4.5 C 1.753906 -4.082031 1.546875 -3.578125 1.546875 -2.984375 C 1.546875 -2.398438 1.753906 -1.898438 2.171875 -1.484375 C 2.597656 -1.054688 3.109375 -0.84375 3.703125 -0.84375 C 4.296875 -0.84375 4.800781 -1.054688 5.21875 -1.484375 C 5.644531 -1.898438 5.859375 -2.398438 5.859375 -2.984375 Z M 6.796875 -2.984375 C 6.796875 -2.117188 6.492188 -1.394531 5.890625 -0.8125 C 5.273438 -0.207031 4.546875 0.09375 3.703125 0.09375 C 2.859375 0.09375 2.128906 -0.207031 1.515625 -0.8125 C 0.910156 -1.394531 0.609375 -2.117188 0.609375 -2.984375 C 0.609375 -3.835938 0.910156 -4.566406 1.515625 -5.171875 C 2.117188 -5.773438 2.847656 -6.078125 3.703125 -6.078125 C 4.554688 -6.078125 5.285156 -5.773438 5.890625 -5.171875 C 6.492188 -4.566406 6.796875 -3.835938 6.796875 -2.984375 Z M 6.796875 -2.984375 "/></g></g></g><g fill="#000000" fill-opacity="1"><g transform="translate(63.068666, 18.843469)"><g><path d="M 1.953125 3.359375 L 1.015625 3.359375 L 1.015625 -5.921875 L 1.953125 -5.921875 L 1.953125 -4.90625 C 2.003906 -4.976562 2.0625 -5.046875 2.125 -5.109375 C 2.675781 -5.734375 3.363281 -6.046875 4.1875 -6.046875 C 5 -6.046875 5.6875 -5.734375 6.25 -5.109375 C 6.789062 -4.503906 7.0625 -3.785156 7.0625 -2.953125 C 7.0625 -2.128906 6.789062 -1.414062 6.25 -0.8125 C 5.6875 -0.175781 5 0.140625 4.1875 0.140625 C 3.363281 0.140625 2.675781 -0.175781 2.125 -0.8125 C 2.0625 -0.875 2.003906 -0.941406 1.953125 -1.015625 Z M 6.125 -2.953125 C 6.125 -3.535156 5.925781 -4.039062 5.53125 -4.46875 C 5.125 -4.894531 4.625 -5.109375 4.03125 -5.109375 C 3.4375 -5.109375 2.945312 -4.894531 2.5625 -4.46875 C 2.15625 -4.039062 1.953125 -3.535156 1.953125 -2.953125 C 1.953125 -2.378906 2.15625 -1.878906 2.5625 -1.453125 C 2.945312 -1.023438 3.4375 -0.8125 4.03125 -0.8125 C 4.625 -0.8125 5.125 -1.023438 5.53125 -1.453125 C 5.925781 -1.878906 6.125 -2.378906 6.125 -2.953125 Z M 6.125 -2.953125 "/></g></g></g><g fill="#2908b0" fill-opacity="1"><g transform="translate(21.266203, 24.446443)"><g><path d="M 1.640625 -0.609375 C 1.640625 -0.515625 1.625 -0.425781 1.59375 -0.34375 C 1.550781 -0.269531 1.492188 -0.207031 1.421875 -0.15625 C 1.296875 -0.0507812 1.117188 0 0.890625 0 L 0.234375 0 L 0.234375 -2.15625 L 0.828125 -2.15625 C 1.140625 -2.15625 1.34375 -2.054688 1.4375 -1.859375 C 1.46875 -1.796875 1.484375 -1.726562 1.484375 -1.65625 C 1.484375 -1.582031 1.476562 -1.523438 1.46875 -1.484375 C 1.457031 -1.441406 1.441406 -1.398438 1.421875 -1.359375 C 1.367188 -1.273438 1.304688 -1.21875 1.234375 -1.1875 C 1.359375 -1.15625 1.457031 -1.085938 1.53125 -0.984375 C 1.601562 -0.878906 1.640625 -0.753906 1.640625 -0.609375 Z M 1.265625 -1.625 C 1.265625 -1.832031 1.117188 -1.9375 0.828125 -1.9375 L 0.453125 -1.9375 L 0.453125 -1.265625 L 0.890625 -1.265625 C 1.003906 -1.265625 1.09375 -1.296875 1.15625 -1.359375 C 1.226562 -1.410156 1.265625 -1.5 1.265625 -1.625 Z M 1.421875 -0.640625 C 1.421875 -0.703125 1.410156 -0.757812 1.390625 -0.8125 C 1.359375 -0.863281 1.328125 -0.90625 1.296875 -0.9375 C 1.210938 -1.007812 1.113281 -1.046875 1 -1.046875 L 0.453125 -1.046875 L 0.453125 -0.21875 L 0.96875 -0.21875 C 1.101562 -0.21875 1.210938 -0.253906 1.296875 -0.328125 C 1.378906 -0.410156 1.421875 -0.515625 1.421875 -0.640625 Z M 1.421875 -0.640625 "/></g></g></g><g fill="#2908b0" fill-opacity="1"><g transform="translate(24.555555, 24.446443)"><g><path d="M 1.796875 -0.71875 C 1.796875 -0.476562 1.71875 -0.289062 1.5625 -0.15625 C 1.425781 -0.03125 1.238281 0.03125 1 0.03125 C 0.757812 0.03125 0.566406 -0.03125 0.421875 -0.15625 C 0.265625 -0.289062 0.1875 -0.476562 0.1875 -0.71875 L 0.1875 -2.15625 L 0.40625 -2.15625 L 0.40625 -0.6875 C 0.40625 -0.519531 0.46875 -0.394531 0.59375 -0.3125 C 0.695312 -0.226562 0.832031 -0.1875 1 -0.1875 C 1.257812 -0.1875 1.4375 -0.273438 1.53125 -0.453125 C 1.5625 -0.515625 1.578125 -0.59375 1.578125 -0.6875 L 1.578125 -2.15625 L 1.796875 -2.15625 Z M 1.796875 -0.71875 "/></g></g></g><g fill="#2908b0" fill-opacity="1"><g transform="translate(28.123341, 24.446443)"><g><path d="M 1.078125 -1.015625 L 1.078125 0 L 0.84375 0 L 0.84375 -1.015625 L 0.03125 -2.15625 L 0.3125 -2.15625 L 0.96875 -1.234375 L 1.609375 -2.15625 L 1.890625 -2.15625 Z M 1.078125 -1.015625 "/></g></g></g><g fill="#2908b0" fill-opacity="1"><g transform="translate(31.621518, 24.446443)"><g/></g></g><g fill="#2908b0" fill-opacity="1"><g transform="translate(34.059747, 24.446443)"><g><path d="M 1.515625 -1.953125 L 0.453125 -1.953125 L 0.453125 -1.1875 L 1.484375 -1.1875 L 1.484375 -0.96875 L 0.453125 -0.96875 L 0.453125 0 L 0.234375 0 L 0.234375 -2.15625 L 1.515625 -2.15625 Z M 1.515625 -1.953125 "/></g></g></g><g fill="#2908b0" fill-opacity="1"><g transform="translate(37.222537, 24.446443)"><g><path d="M 0.453125 -1.0625 L 0.96875 -1.0625 C 1.082031 -1.0625 1.179688 -1.101562 1.265625 -1.1875 C 1.347656 -1.28125 1.390625 -1.390625 1.390625 -1.515625 C 1.390625 -1.640625 1.351562 -1.742188 1.28125 -1.828125 C 1.195312 -1.898438 1.09375 -1.9375 0.96875 -1.9375 L 0.453125 -1.9375 Z M 1.609375 -1.5 C 1.609375 -1.3125 1.546875 -1.15625 1.421875 -1.03125 C 1.296875 -0.925781 1.148438 -0.867188 0.984375 -0.859375 L 1.65625 0 L 1.34375 0 L 0.71875 -0.859375 L 0.453125 -0.859375 L 0.453125 0 L 0.234375 0 L 0.234375 -2.15625 L 0.921875 -2.15625 C 1.117188 -2.15625 1.285156 -2.09375 1.421875 -1.96875 C 1.546875 -1.84375 1.609375 -1.6875 1.609375 -1.5 Z M 1.609375 -1.5 "/></g></g></g><g fill="#2908b0" fill-opacity="1"><g transform="translate(40.527711, 24.446443)"><g><path d="M 2.140625 -1.078125 C 2.140625 -1.328125 2.050781 -1.535156 1.875 -1.703125 C 1.707031 -1.878906 1.5 -1.96875 1.25 -1.96875 C 1.007812 -1.96875 0.800781 -1.878906 0.625 -1.703125 C 0.445312 -1.535156 0.359375 -1.328125 0.359375 -1.078125 C 0.359375 -0.835938 0.445312 -0.628906 0.625 -0.453125 C 0.800781 -0.285156 1.007812 -0.203125 1.25 -0.203125 C 1.5 -0.203125 1.707031 -0.285156 1.875 -0.453125 C 2.050781 -0.628906 2.140625 -0.835938 2.140625 -1.078125 Z M 2.359375 -1.078125 C 2.359375 -0.929688 2.332031 -0.789062 2.28125 -0.65625 C 2.21875 -0.519531 2.132812 -0.398438 2.03125 -0.296875 C 1.9375 -0.203125 1.820312 -0.125 1.6875 -0.0625 C 1.550781 0 1.40625 0.03125 1.25 0.03125 C 1.09375 0.03125 0.953125 0 0.828125 -0.0625 C 0.691406 -0.125 0.570312 -0.203125 0.46875 -0.296875 C 0.363281 -0.398438 0.285156 -0.519531 0.234375 -0.65625 C 0.171875 -0.789062 0.140625 -0.929688 0.140625 -1.078125 C 0.140625 -1.234375 0.171875 -1.378906 0.234375 -1.515625 C 0.285156 -1.648438 0.363281 -1.769531 0.46875 -1.875 C 0.570312 -1.96875 0.691406 -2.046875 0.828125 -2.109375 C 0.953125 -2.160156 1.09375 -2.1875 1.25 -2.1875 C 1.40625 -2.1875 1.550781 -2.160156 1.6875 -2.109375 C 1.820312 -2.046875 1.9375 -1.96875 2.03125 -1.875 C 2.132812 -1.769531 2.21875 -1.648438 2.28125 -1.515625 C 2.332031 -1.378906 2.359375 -1.234375 2.359375 -1.078125 Z M 2.359375 -1.078125 "/></g></g></g><g fill="#2908b0" fill-opacity="1"><g transform="translate(44.60807, 24.446443)"><g><path d="M 2.234375 0 L 1.890625 -1.53125 L 1.25 0.125 L 0.59375 -1.53125 L 0.265625 0 L 0.03125 0 L 0.53125 -2.296875 L 1.25 -0.453125 L 1.953125 -2.296875 L 2.453125 0 Z M 2.234375 0 "/></g></g></g><g fill="#2908b0" fill-opacity="1"><g transform="translate(48.669443, 24.446443)"><g/></g></g><g fill="#2908b0" fill-opacity="1"><g transform="translate(51.107671, 24.446443)"><g><path d="M 2.21875 -0.65625 C 2.132812 -0.445312 2.003906 -0.28125 1.828125 -0.15625 C 1.640625 -0.03125 1.4375 0.03125 1.21875 0.03125 C 0.914062 0.03125 0.660156 -0.078125 0.453125 -0.296875 C 0.242188 -0.515625 0.140625 -0.773438 0.140625 -1.078125 C 0.140625 -1.222656 0.164062 -1.363281 0.21875 -1.5 C 0.28125 -1.632812 0.359375 -1.753906 0.453125 -1.859375 C 0.660156 -2.078125 0.914062 -2.1875 1.21875 -2.1875 C 1.4375 -2.1875 1.640625 -2.125 1.828125 -2 C 2.003906 -1.875 2.132812 -1.707031 2.21875 -1.5 L 1.96875 -1.5 C 1.851562 -1.71875 1.679688 -1.859375 1.453125 -1.921875 C 1.367188 -1.941406 1.28125 -1.953125 1.1875 -1.953125 C 1.082031 -1.953125 0.976562 -1.929688 0.875 -1.890625 C 0.769531 -1.835938 0.679688 -1.769531 0.609375 -1.6875 C 0.441406 -1.519531 0.359375 -1.316406 0.359375 -1.078125 C 0.359375 -0.835938 0.441406 -0.628906 0.609375 -0.453125 C 0.773438 -0.285156 0.976562 -0.203125 1.21875 -0.203125 C 1.375 -0.203125 1.519531 -0.242188 1.65625 -0.328125 C 1.789062 -0.410156 1.894531 -0.519531 1.96875 -0.65625 Z M 2.21875 -0.65625 "/></g></g></g><g fill="#2908b0" fill-opacity="1"><g transform="translate(54.99819, 24.446443)"><g><path d="M 0.453125 0 L 0.234375 0 L 0.234375 -2.15625 L 0.453125 -2.15625 L 0.453125 -1.1875 L 1.4375 -1.1875 L 1.4375 -2.15625 L 1.65625 -2.15625 L 1.65625 0 L 1.4375 0 L 1.4375 -0.96875 L 0.453125 -0.96875 Z M 0.453125 0 "/></g></g></g><g fill="#2908b0" fill-opacity="1"><g transform="translate(58.477385, 24.446443)"><g><path d="M 0.453125 0 L 0.234375 0 L 0.234375 -2.15625 L 0.453125 -2.15625 Z M 0.453125 0 "/></g></g></g><g fill="#2908b0" fill-opacity="1"><g transform="translate(60.757414, 24.446443)"><g><path d="M 0.453125 -1.59375 L 0.453125 0 L 0.234375 0 L 0.234375 -2.296875 L 1.453125 -0.578125 L 1.453125 -2.15625 L 1.671875 -2.15625 L 1.671875 0.140625 Z M 0.453125 -1.59375 "/></g></g></g><g fill="#2908b0" fill-opacity="1"><g transform="translate(64.246101, 24.446443)"><g><path d="M 0.59375 -0.796875 L 1.375 -0.796875 L 0.984375 -1.78125 Z M 1.921875 0 L 1.6875 0 L 1.453125 -0.59375 L 0.5 -0.59375 L 0.265625 0 L 0.03125 0 L 0.984375 -2.3125 Z M 1.921875 0 "/></g></g></g></svg>