<svg xmlns="http://www.w3.org/2000/svg" xmlns:xlink="http://www.w3.org/1999/xlink" width="288" zoomAndPan="magnify" viewBox="0 0 216 143.999998" height="192" preserveAspectRatio="xMidYMid meet" version="1.0"><defs><g/><clipPath id="40af2ab67e"><path d="M 120.003906 39 L 130 39 L 130 41 L 120.003906 41 Z M 120.003906 39 " clip-rule="nonzero"/></clipPath><clipPath id="367edd1bed"><path d="M 129 9.027344 L 169 9.027344 L 169 50 L 129 50 Z M 129 9.027344 " clip-rule="nonzero"/></clipPath><clipPath id="00cb90f280"><path d="M 169 33 L 201.753906 33 L 201.753906 140.277344 L 169 140.277344 Z M 169 33 " clip-rule="nonzero"/></clipPath></defs><rect x="-21.6" width="259.2" fill="#ffffff" y="-14.4" height="172.799997" fill-opacity="1"/><rect x="-21.6" width="259.2" fill="#ffffff" y="-14.4" height="172.799997" fill-opacity="1"/><g clip-path="url(#40af2ab67e)"><path fill="#ff3131" d="M 129.269531 39.308594 L 120.003906 40.15625 L 129.269531 40.09375 Z M 129.269531 39.308594 " fill-opacity="1" fill-rule="nonzero"/></g><path fill="#ff3131" d="M 134.007812 38.917969 L 134.007812 40.105469 L 164.183594 39.917969 L 164.160156 36.15625 Z M 134.007812 38.917969 " fill-opacity="1" fill-rule="nonzero"/><g clip-path="url(#367edd1bed)"><path fill="#ff3131" d="M 167.675781 45.671875 C 167.664062 41.167969 167.609375 26.023438 167.675781 24.359375 C 167.71875 23.269531 167.074219 18.367188 163.195312 14.332031 C 159.84375 10.851562 155.148438 9.089844 149.230469 9.089844 C 131.496094 9.089844 130.648438 25.347656 130.648438 25.542969 L 130.648438 45.660156 C 130.117188 46.007812 129.757812 46.617188 129.757812 47.300781 C 129.757812 48.390625 130.636719 49.269531 131.726562 49.269531 C 132.8125 49.269531 133.691406 48.390625 133.691406 47.300781 C 133.691406 46.507812 133.226562 45.835938 132.539062 45.519531 L 132.539062 25.578125 C 132.5625 24.976562 133.300781 10.972656 149.242188 10.972656 C 154.625 10.972656 158.867188 12.539062 161.84375 15.636719 C 164.988281 18.898438 165.835938 23.117188 165.792969 24.28125 C 165.726562 25.980469 165.769531 40.808594 165.78125 45.519531 C 165.109375 45.835938 164.628906 46.507812 164.628906 47.300781 C 164.628906 48.390625 165.511719 49.269531 166.597656 49.269531 C 167.683594 49.269531 168.566406 48.390625 168.566406 47.300781 C 168.566406 46.617188 168.207031 46.019531 167.675781 45.671875 Z M 167.675781 45.671875 " fill-opacity="1" fill-rule="nonzero"/></g><g clip-path="url(#00cb90f280)"><path fill="#ff3131" d="M 193.261719 36.199219 L 191.988281 33.65625 L 191.464844 33.699219 L 180.734375 34.675781 L 169.230469 35.730469 L 169.261719 39.886719 L 184.070312 39.800781 C 209.765625 82.988281 181.234375 139.347656 180.613281 140.566406 C 210.691406 98.125 202.121094 50.714844 193.261719 36.199219 Z M 193.261719 36.199219 " fill-opacity="1" fill-rule="nonzero"/></g><g fill="#000000" fill-opacity="1"><g transform="translate(12.250083, 93.076447)"><g><path d="M 7.703125 -10.40625 L 17.984375 -10.40625 L 12.859375 -23.4375 Z M 25.28125 0 L 22.109375 0 L 19.078125 -7.703125 L 6.625 -7.703125 L 3.578125 0 L 0.421875 0 L 12.859375 -30.265625 Z M 25.28125 0 "/></g></g></g><g fill="#000000" fill-opacity="1"><g transform="translate(37.943953, 93.076447)"><g><path d="M 15.78125 0 L 15.78125 -11.453125 C 15.78125 -12.640625 15.515625 -13.664062 14.984375 -14.53125 C 14.429688 -15.363281 13.53125 -15.78125 12.28125 -15.78125 C 11.03125 -15.78125 10.019531 -15.546875 9.25 -15.078125 C 8.46875 -14.597656 7.84375 -13.984375 7.375 -13.234375 C 6.476562 -11.847656 6.03125 -9.988281 6.03125 -7.65625 L 6.03125 0 L 3.125 0 L 3.125 -18.328125 L 6.03125 -18.328125 L 6.03125 -15.15625 C 6.644531 -16.1875 7.425781 -17.035156 8.375 -17.703125 C 9.375 -18.367188 10.523438 -18.703125 11.828125 -18.703125 C 13.128906 -18.703125 14.179688 -18.519531 14.984375 -18.15625 C 15.796875 -17.769531 16.476562 -17.253906 17.03125 -16.609375 C 18.144531 -15.304688 18.703125 -13.585938 18.703125 -11.453125 L 18.703125 0 Z M 15.78125 0 "/></g></g></g><g fill="#000000" fill-opacity="1"><g transform="translate(59.140341, 93.076447)"><g><path d="M 6.03125 0 L 3.125 0 L 3.125 -31.234375 L 6.03125 -31.234375 L 6.03125 -10.125 L 12.734375 -18.359375 L 16.609375 -18.359375 L 9.078125 -9.453125 L 17.109375 0 L 13.234375 0 L 6.03125 -8.78125 Z M 6.03125 0 "/></g></g></g><g fill="#000000" fill-opacity="1"><g transform="translate(76.672135, 93.076447)"><g/></g></g><g fill="#000000" fill-opacity="1"><g transform="translate(87.91581, 93.076447)"><g><path d="M 11 -13.359375 C 5.21875 -14.691406 2.328125 -17.164062 2.328125 -20.78125 C 2.328125 -23.445312 3.257812 -25.445312 5.125 -26.78125 C 6.976562 -28.082031 9.15625 -28.734375 11.65625 -28.734375 C 17.1875 -28.734375 20.460938 -26.675781 21.484375 -22.5625 L 18.328125 -22.5625 C 17.765625 -25.007812 15.539062 -26.234375 11.65625 -26.234375 C 8.9375 -26.234375 7.035156 -25.425781 5.953125 -23.8125 C 5.535156 -23.207031 5.328125 -22.445312 5.328125 -21.53125 C 5.328125 -19.78125 6.269531 -18.429688 8.15625 -17.484375 C 9.050781 -17.015625 10.941406 -16.40625 13.828125 -15.65625 C 16.710938 -14.90625 18.804688 -14.070312 20.109375 -13.15625 C 21.910156 -11.882812 22.8125 -10.09375 22.8125 -7.78125 C 22.8125 -4.925781 21.691406 -2.765625 19.453125 -1.296875 C 17.554688 -0.0664062 15.222656 0.546875 12.453125 0.546875 C 6.179688 0.546875 2.546875 -1.84375 1.546875 -6.625 L 5 -6.625 C 5.519531 -3.625 8.003906 -2.125 12.453125 -2.125 C 15.617188 -2.125 17.828125 -3 19.078125 -4.75 C 19.578125 -5.4375 19.828125 -6.378906 19.828125 -7.578125 C 19.828125 -8.742188 19.367188 -9.703125 18.453125 -10.453125 C 17.140625 -11.503906 14.65625 -12.472656 11 -13.359375 Z M 11 -13.359375 "/></g></g></g><g fill="#000000" fill-opacity="1"><g transform="translate(111.819022, 93.076447)"><g><path d="M 6.03125 0 L 3.125 0 L 3.125 -31.234375 L 6.03125 -31.234375 L 6.03125 -15.15625 C 6.644531 -16.1875 7.425781 -17.035156 8.375 -17.703125 C 9.375 -18.367188 10.523438 -18.703125 11.828125 -18.703125 C 13.128906 -18.703125 14.179688 -18.519531 14.984375 -18.15625 C 15.796875 -17.769531 16.476562 -17.253906 17.03125 -16.609375 C 18.144531 -15.304688 18.703125 -13.585938 18.703125 -11.453125 L 18.703125 0 L 15.78125 0 L 15.78125 -11.453125 C 15.78125 -12.640625 15.515625 -13.664062 14.984375 -14.53125 C 14.429688 -15.363281 13.53125 -15.78125 12.28125 -15.78125 C 11.03125 -15.78125 10.019531 -15.585938 9.25 -15.203125 C 8.46875 -14.785156 7.84375 -14.210938 7.375 -13.484375 C 6.476562 -12.160156 6.03125 -10.21875 6.03125 -7.65625 Z M 6.03125 0 "/></g></g></g><g fill="#000000" fill-opacity="1"><g transform="translate(133.01541, 93.076447)"><g><path d="M 18.109375 -9.25 C 18.109375 -11.082031 17.457031 -12.648438 16.15625 -13.953125 C 14.851562 -15.253906 13.285156 -15.90625 11.453125 -15.90625 C 9.617188 -15.90625 8.050781 -15.253906 6.75 -13.953125 C 5.4375 -12.648438 4.78125 -11.082031 4.78125 -9.25 C 4.78125 -7.4375 5.4375 -5.878906 6.75 -4.578125 C 8.050781 -3.273438 9.617188 -2.625 11.453125 -2.625 C 13.285156 -2.625 14.851562 -3.273438 16.15625 -4.578125 C 17.457031 -5.878906 18.109375 -7.4375 18.109375 -9.25 Z M 21.03125 -9.25 C 21.03125 -6.582031 20.097656 -4.332031 18.234375 -2.5 C 16.316406 -0.632812 14.054688 0.296875 11.453125 0.296875 C 8.835938 0.296875 6.585938 -0.632812 4.703125 -2.5 C 2.816406 -4.332031 1.875 -6.582031 1.875 -9.25 C 1.875 -11.882812 2.816406 -14.144531 4.703125 -16.03125 C 6.566406 -17.894531 8.816406 -18.828125 11.453125 -18.828125 C 14.085938 -18.828125 16.347656 -17.894531 18.234375 -16.03125 C 20.097656 -14.144531 21.03125 -11.882812 21.03125 -9.25 Z M 21.03125 -9.25 "/></g></g></g><g fill="#000000" fill-opacity="1"><g transform="translate(155.919175, 93.076447)"><g><path d="M 6.03125 10.40625 L 3.125 10.40625 L 3.125 -18.328125 L 6.03125 -18.328125 L 6.03125 -15.203125 C 6.195312 -15.421875 6.378906 -15.628906 6.578125 -15.828125 C 8.296875 -17.765625 10.421875 -18.734375 12.953125 -18.734375 C 15.472656 -18.734375 17.609375 -17.765625 19.359375 -15.828125 C 21.023438 -13.929688 21.859375 -11.707031 21.859375 -9.15625 C 21.859375 -6.601562 21.023438 -4.382812 19.359375 -2.5 C 17.609375 -0.550781 15.472656 0.421875 12.953125 0.421875 C 10.421875 0.421875 8.296875 -0.550781 6.578125 -2.5 C 6.378906 -2.695312 6.195312 -2.90625 6.03125 -3.125 Z M 18.953125 -9.15625 C 18.953125 -10.9375 18.335938 -12.492188 17.109375 -13.828125 C 15.859375 -15.160156 14.316406 -15.828125 12.484375 -15.828125 C 10.660156 -15.828125 9.132812 -15.160156 7.90625 -13.828125 C 6.65625 -12.492188 6.03125 -10.9375 6.03125 -9.15625 C 6.03125 -7.382812 6.65625 -5.832031 7.90625 -4.5 C 9.132812 -3.164062 10.660156 -2.5 12.484375 -2.5 C 14.316406 -2.5 15.859375 -3.164062 17.109375 -4.5 C 18.335938 -5.832031 18.953125 -7.382812 18.953125 -9.15625 Z M 18.953125 -9.15625 "/></g></g></g></svg>